<svg id="Capa_1" enable-background="new 0 0 512 512" height="512" viewBox="0 0 512 512" width="512" xmlns="http://www.w3.org/2000/svg"><g><g><path d="m256 20.893h102.664v59.632h-102.664z" fill="#dc5c65"/><path d="m256 62.525h102.664v18h-102.664z" fill="#b94551"/><g><path d="m256 504h237.927c5.563 0 10.073-4.51 10.073-10.073v-167.398c0-5.958-2.656-11.605-7.245-15.405l-228-188.79c-7.4-6.127-18.111-6.127-25.511 0l-228 188.79c-4.588 3.8-7.244 9.447-7.244 15.405v167.399c0 5.562 4.51 10.072 10.073 10.072z" fill="#7c7f2a"/></g><path d="m493.927 486h-237.927-237.927c-5.563 0-10.073-4.51-10.073-10.073v18c0 5.563 4.51 10.073 10.073 10.073h237.927 237.927c5.563 0 10.073-4.51 10.073-10.073v-18c0 5.563-4.51 10.073-10.073 10.073z" fill="#6a6925"/><path d="m193.158 327.906h62.842v176.094h-62.842z" fill="#0a789b"/><path d="m256 327.906h62.842v176.094h-62.842z" fill="#0a617d" transform="matrix(-1 0 0 -1 574.842 831.906)"/><path d="m193.158 486h62.842v18h-62.842z" fill="#0a617d"/><path d="m256 486h62.842v18h-62.842z" fill="#08475e"/><path d="m132.522 438.173h-52.91c-4.257 0-7.708-3.451-7.708-7.708v-52.909c0-4.257 3.451-7.708 7.708-7.708h52.909c4.257 0 7.708 3.451 7.708 7.708v52.909c.001 4.257-3.45 7.708-7.707 7.708z" fill="#f7e471"/><path d="m132.522 420.173h-52.91c-4.257 0-7.708-3.451-7.708-7.708v18c0 4.257 3.451 7.708 7.708 7.708h52.909c4.257 0 7.708-3.451 7.708-7.708v-18c.001 4.257-3.45 7.708-7.707 7.708z" fill="#f1cb66"/><path d="m379.478 438.173h52.909c4.257 0 7.708-3.451 7.708-7.708v-52.909c0-4.257-3.451-7.708-7.708-7.708h-52.909c-4.257 0-7.708 3.451-7.708 7.708v52.909c0 4.257 3.451 7.708 7.708 7.708z" fill="#f7e471"/><path d="m432.388 420.173h-52.909c-4.257 0-7.708-3.451-7.708-7.708v18c0 4.257 3.451 7.708 7.708 7.708h52.909c4.257 0 7.708-3.451 7.708-7.708v-18c0 4.257-3.451 7.708-7.708 7.708z" fill="#f1cb66"/><path d="m262.027 196.435 10.677 17.093c.976 1.563 2.521 2.685 4.309 3.131l19.556 4.872c5.098 1.27 7.103 7.441 3.725 11.465l-12.957 15.436c-1.185 1.411-1.775 3.228-1.646 5.066l1.409 20.104c.367 5.24-4.882 9.054-9.753 7.086l-18.685-7.553c-1.708-.69-3.618-.69-5.326 0l-18.685 7.553c-4.87 1.969-10.12-1.845-9.752-7.086l1.409-20.104c.129-1.838-.461-3.654-1.646-5.066l-12.957-15.436c-3.377-4.024-1.372-10.195 3.725-11.465l19.555-4.872c1.788-.445 3.333-1.568 4.309-3.131l10.677-17.093c2.785-4.455 9.273-4.455 12.056 0z" fill="#f7e471"/><g><path d="m286.597 266.426-27.934-11.292c-1.708-.69-3.618-.69-5.326 0l-27.934 11.292-.503 7.176c-.367 5.24 4.882 9.054 9.752 7.086l18.685-7.553c1.708-.69 3.618-.69 5.326 0l18.685 7.553c4.871 1.969 10.12-1.845 9.753-7.086z" fill="#f1cb66"/></g></g><g><path d="m99.508 250.826 148.504-122.966c4.628-3.832 11.347-3.833 15.976 0l171.675 142.153c1.402 1.161 3.1 1.727 4.789 1.727 2.16 0 4.306-.928 5.792-2.722 2.647-3.197 2.202-7.934-.995-10.58l-171.676-142.154c-3.026-2.505-6.462-4.247-10.059-5.264v-23.323h95.35c4.151 0 7.515-3.364 7.515-7.515v-59.748c0-4.151-3.364-7.515-7.515-7.515h-95.35v-5.404c.001-4.151-3.363-7.515-7.514-7.515-4.15 0-7.515 3.364-7.515 7.515v103.506c-3.596 1.016-7.033 2.759-10.058 5.264l-148.504 122.966c-3.197 2.647-3.642 7.384-.996 10.58 2.648 3.196 7.385 3.644 10.581.995zm251.842-222.878v44.719h-87.836v-44.719z"/><path d="m502.02 305.444-33.625-27.842c-3.197-2.648-7.934-2.202-10.58.995-2.647 3.197-2.202 7.934.995 10.58l33.624 27.841c2.883 2.387 4.537 5.904 4.537 9.648v167.726c0 1.421-1.157 2.577-2.577 2.577h-167.915v-168.922c0-4.151-3.364-7.515-7.515-7.515h-125.93c-4.15 0-7.515 3.364-7.515 7.515v168.924h-167.912c-1.421 0-2.578-1.157-2.578-2.577v-167.727c0-3.744 1.654-7.26 4.537-9.648l56.771-47.007c3.197-2.647 3.642-7.383.996-10.58-2.648-3.197-7.385-3.643-10.581-.995l-56.771 47.007c-6.343 5.253-9.981 12.987-9.981 21.223v167.726c0 9.709 7.899 17.607 17.607 17.607h476.786c9.708 0 17.607-7.898 17.607-17.607v-167.726c0-8.235-3.637-15.969-9.98-21.223zm-301.47 30.118h47.935v96.957c0 4.151 3.365 7.515 7.515 7.515 4.151 0 7.515-3.364 7.515-7.515v-96.957h47.935v161.409h-47.935v-34.393c0-4.151-3.364-7.515-7.515-7.515-4.15 0-7.515 3.364-7.515 7.515v34.393h-47.935z"/><path d="m64.029 377.793v53.013c0 8.403 6.836 15.239 15.238 15.239h53.013c8.402 0 15.238-6.836 15.238-15.239v-53.013c0-8.402-6.836-15.238-15.238-15.238h-53.013c-8.402.001-15.238 6.836-15.238 15.238zm15.03 0c0-.114.094-.208.208-.208h53.013c.115 0 .209.094.209.208v53.013c0 .115-.094.209-.209.209h-53.013c-.115 0-.208-.094-.208-.209z"/><path d="m432.733 362.556h-53.013c-8.402 0-15.238 6.836-15.238 15.238v53.013c0 8.403 6.836 15.239 15.238 15.239h53.013c8.402 0 15.238-6.836 15.238-15.239v-53.013c0-8.403-6.836-15.238-15.238-15.238zm.208 68.25c0 .115-.094.209-.208.209h-53.013c-.115 0-.209-.094-.209-.209v-53.013c0-.114.094-.208.209-.208h53.013c.115 0 .208.094.208.208z"/><path d="m308.845 223.849c-1.57-4.832-5.45-8.449-10.38-9.677l-19.44-4.844-10.612-16.991s0 0-.001 0c-2.692-4.309-7.332-6.881-12.412-6.881-5.081 0-9.721 2.571-12.412 6.881l-10.613 16.991-19.438 4.844c-4.93 1.227-8.811 4.845-10.381 9.676-1.57 4.833-.558 10.041 2.709 13.935l12.88 15.343-1.401 19.984c-.355 5.069 1.887 9.878 5.998 12.864 2.552 1.853 5.548 2.805 8.581 2.805 1.853 0 3.719-.355 5.505-1.077l18.572-7.507 18.573 7.508c4.712 1.904 9.978 1.257 14.087-1.728 4.111-2.987 6.352-7.796 5.997-12.864l-1.401-19.985 12.88-15.342c3.267-3.894 4.28-9.102 2.709-13.935zm-27.204 19.738c-2.451 2.923-3.655 6.627-3.387 10.432l1.368 19.514-18.137-7.331c-1.768-.715-3.626-1.072-5.484-1.072s-3.716.357-5.484 1.072l-18.136 7.331 1.367-19.514c.267-3.804-.936-7.509-3.39-10.434l-12.576-14.982 18.98-4.73c3.702-.922 6.854-3.211 8.875-6.447l10.363-16.591 10.363 16.591c2.021 3.236 5.173 5.525 8.875 6.447l18.981 4.73z"/></g></g></svg>