<?xml version="1.0" encoding="iso-8859-1"?>
<!-- Generator: Adobe Illustrator 19.0.0, SVG Export Plug-In . SVG Version: 6.00 Build 0)  -->
<svg version="1.1" id="Capa_1" xmlns="http://www.w3.org/2000/svg" xmlns:xlink="http://www.w3.org/1999/xlink" x="0px" y="0px"
	 viewBox="0 0 512 512" style="enable-background:new 0 0 512 512;" xml:space="preserve">
<g>
	<g>
		<g>
			<path d="M392.329,150.242c-0.155-2.471-1.376-4.753-3.345-6.254s-4.493-2.073-6.917-1.567
				c-87.942,18.354-117.35-33.5-118.533-35.671c-1.624-2.597-4.47-4.175-7.533-4.175s-5.91,1.578-7.533,4.175
				c-0.287,0.542-29.971,54.167-118.533,35.671c-2.424-0.506-4.948,0.066-6.917,1.567s-3.19,3.783-3.345,6.254
				c-0.109,1.754-9.346,176.3,132.058,258.038c2.642,1.528,5.9,1.528,8.542,0C401.675,326.542,392.438,151.996,392.329,150.242z
				 M256,390.975c-109.442-66.363-118.987-193.904-119.417-229.971C206.1,172.162,241.787,142.371,256,125.45
				c14.213,16.925,49.883,46.733,119.417,35.554C374.988,197.071,365.442,324.612,256,390.975z"/>
			<path d="M102.4,234.492c4.713,0,8.533-3.82,8.533-8.533s-3.82-8.533-8.533-8.533H8.533c-4.713,0-8.533,3.821-8.533,8.533
				s3.82,8.533,8.533,8.533H102.4z"/>
			<path d="M110.933,268.625c4.713,0,8.533-3.82,8.533-8.533s-3.82-8.533-8.533-8.533H17.067c-4.713,0-8.533,3.82-8.533,8.533
				s3.82,8.533,8.533,8.533H110.933z"/>
			<path d="M128,294.225c0-4.713-3.82-8.533-8.533-8.533H25.6c-4.713,0-8.533,3.82-8.533,8.533s3.82,8.533,8.533,8.533h93.867
				C124.18,302.758,128,298.938,128,294.225z"/>
			<path d="M136.533,319.825H42.667c-4.713,0-8.533,3.82-8.533,8.533s3.82,8.533,8.533,8.533h93.867c4.713,0,8.533-3.82,8.533-8.533
				S141.246,319.825,136.533,319.825z"/>
			<path d="M503.467,217.425H409.6c-4.713,0-8.533,3.821-8.533,8.533s3.82,8.533,8.533,8.533h93.867c4.713,0,8.533-3.82,8.533-8.533
				S508.18,217.425,503.467,217.425z"/>
			<path d="M494.933,251.558h-93.867c-4.713,0-8.533,3.82-8.533,8.533s3.821,8.533,8.533,8.533h93.867
				c4.713,0,8.533-3.82,8.533-8.533S499.646,251.558,494.933,251.558z"/>
			<path d="M486.4,285.692h-93.867c-4.713,0-8.533,3.82-8.533,8.533s3.821,8.533,8.533,8.533H486.4c4.713,0,8.533-3.82,8.533-8.533
				S491.113,285.692,486.4,285.692z"/>
			<path d="M469.333,319.825h-93.867c-4.713,0-8.533,3.82-8.533,8.533s3.82,8.533,8.533,8.533h93.867
				c2.263,0.001,4.434-0.898,6.035-2.499c1.6-1.6,2.499-3.771,2.499-6.035c0.001-2.263-0.898-4.434-2.499-6.035
				C473.768,320.723,471.597,319.824,469.333,319.825z"/>
			<path d="M317.021,220.492l-36.771-5.621l-16.525-35.204c-1.406-2.995-4.416-4.908-7.725-4.908c-3.309,0-6.319,1.913-7.725,4.908
				l-16.525,35.204l-36.771,5.621c-3.162,0.482-5.788,2.692-6.804,5.724s-0.25,6.378,1.983,8.667l26.858,27.525l-6.354,38.975
				c-0.529,3.225,0.832,6.468,3.504,8.35c2.673,1.879,6.184,2.07,9.046,0.492L256,292.1l32.788,18.125
				c2.86,1.582,6.372,1.392,9.044-0.49c2.672-1.882,4.033-5.126,3.506-8.351l-6.354-38.975l26.858-27.525
				c2.233-2.289,2.999-5.635,1.983-8.667S320.182,220.974,317.021,220.492z M279.758,253.575c-1.892,1.938-2.75,4.66-2.313,7.333
				l4.221,25.879l-21.537-11.904c-2.569-1.422-5.689-1.422-8.258,0l-21.537,11.904l4.221-25.879c0.438-2.673-0.42-5.395-2.313-7.333
				L213.97,234.85l24.858-3.8c2.814-0.428,5.229-2.232,6.438-4.808L256,203.375l10.733,22.867c1.209,2.577,3.624,4.38,6.438,4.808
				l24.858,3.8L279.758,253.575z"/>
		</g>
	</g>
</g>
<g>
</g>
<g>
</g>
<g>
</g>
<g>
</g>
<g>
</g>
<g>
</g>
<g>
</g>
<g>
</g>
<g>
</g>
<g>
</g>
<g>
</g>
<g>
</g>
<g>
</g>
<g>
</g>
<g>
</g>
</svg>
